PathFileType	4	(X/Y/Z)	C:/Users/beibeiliu/ov580/test_trc/User3\sequence.23_training_dense_right.trc
DataRate	CameraRate	NumFrames	NumMarkers	Units	OrigDataRate	OrigDataStartFrame	OrigNumFrames
120	120	16	19	mm	120	1	92
Frame#	Time	ThumbCMC			ThumbMCP			ThumbIP			ThumbTip			IndexMCP			IndexPIP			IndexTip			MiddleMCP			MiddlePIP			MiddleTip			RingMCP			RingPIP			RingTip			PinkyMCP			PinkyPIP			PinkyTip			BackHand1			BackHand2			BackHand3	
		X0	Y0	Z0	X1	Y1	Z1	X2	Y2	Z2	X3	Y3	Z3	X4	Y4	Z4	X5	Y5	Z5	X6	Y6	Z6	X7	Y7	Z7	X8	Y8	Z8	X9	Y9	Z9	X10	Y10	Z10	X11	Y11	Z11	X12	Y12	Z12	X13	Y13	Z13	X14	Y14	Z14	X15	Y15	Z15	X16	Y16	Z16	X17	Y17	Z17	X18	Y18	Z18	
0	0	97.766	18.9492	47.5594	74.1765	6.52065	22.5496	65.95	-5.42194	-5.38339	67.4268	-17.1702	-26.3611	103.683	27.1446	-30.4754	92.3097	7.75766	-54.9215	80.3589	-11.8327	-65.1007	126.411	21.0537	-38.4941	112.43	4.21152	-62.135	101.219	-29.006	-72.0005	141.033	9.49283	-32.7064	132.52	-10.893	-53.7492	121.377	-41.2062	-55.14	156.904	-1.63129	-20.8214	150.467	-21.2446	-38.9231	137.869	-44.5251	-38.7383	153.832	29.4563	18.485	158.2	31.8353	50.006	125.452	41.339	37.9258	
1	0.00833333	95.1075	18.0621	43.3864	78.0185	4.97782	24.4413	67.8409	-6.63651	-6.06676	64.0905	-19.5808	-24.4705	102.935	24.7867	-29.4984	89.7939	7.89576	-54.7591	82.5778	-17.7866	-65.2197	122.554	20.4983	-36.3547	109.988	-0.558605	-63.2843	99.4841	-32.2451	-71.8865	137.737	8.02852	-33.8224	136.833	-12.7103	-51.3682	119.513	-42.1796	-53.3459	155.445	-3.23317	-18.9681	148.614	-23.767	-38.2561	131.25	-44.9075	-35.7403	152.77	27.4665	19.0715	157.531	29.4163	49.9363	124.341	41.167	35.2099	
2	0.0166667	94.7733	17.1806	49.5035	79.1898	3.83395	22.7358	66.7887	-7.26799	-4.65097	68.107	-18.9784	-24.5139	103.54	23.1005	-29.2119	90.2454	9.30991	-51.4816	84.1046	-16.231	-63.8078	121.432	17.2942	-40.3412	109.727	-1.41983	-62.2542	99.1205	-35.0097	-71.0275	140.568	5.64298	-32.1048	132.811	-12.4549	-50.3692	120.453	-42.9729	-51.8343	155.12	-3.4557	-20.0896	149.478	-23.1509	-36.1106	134.106	-43.9017	-36.4655	153.913	26.1548	18.366	160.9	28.159	47.3414	126.993	39.8022	37.0431	
3	0.025	94.0927	18.2961	47.0412	76.7666	5.03781	25.5349	68.3812	-6.38753	-5.6503	67.2371	-19.588	-25.5341	102.297	24.8786	-27.2191	90.0549	6.14912	-53.3643	85.3974	-17.3714	-64.3753	126.336	17.3014	-38.4446	113.821	-2.97918	-62.7881	102.648	-33.3201	-70.3531	139.366	7.01722	-33.302	132.89	-15.2976	-52.4307	119.571	-41.9391	-52.7908	155.938	-2.44151	-18.1272	150.674	-19.524	-35.5111	133.357	-46.0201	-37.1471	152.249	29.1551	18.957	159.504	27.2562	50.7133	123.281	40.5785	34.2323	
4	0.0333333	94.4752	20.9131	45.8542	79.6272	6.87681	24.5791	69.2998	-4.20589	-4.24086	69.8003	-17.5725	-25.8483	105.317	25.3156	-30.7196	92.7547	11.8747	-52.58	88.0536	-13.4423	-65.1264	124.601	22.4169	-34.6438	113.953	0.902578	-62.6543	102.588	-26.3752	-73.2307	141.806	10.684	-27.8365	132.884	-9.41486	-53.7185	122.45	-37.6402	-59.2759	160.259	-0.528399	-14.8931	152.157	-17.522	-39.1182	138.095	-41.2565	-41.1862	154.242	29.5022	22.704	163.967	29.856	50.7419	129.95	40.3754	37.7783	
5	0.0416667	97.9455	23.1637	43.5719	84.9992	10.2059	22.6024	73.9416	-0.11553	-1.5022	72.1789	-11.4479	-24.2925	106.051	31.2402	-29.9066	100.441	15.9777	-55.9843	86.4232	-5.02971	-71.4561	131.127	27.3922	-35.8876	123.109	12.0257	-63.9171	109.443	-13.3215	-79.846	145.1	18.4603	-31.8719	144.023	4.19969	-56.0389	131.421	-18.5766	-68.591	166.53	6.33357	-18.3024	162.136	-3.22184	-39.367	151.024	-30.0636	-53.7881	160.552	31.1328	19.4298	163.313	33.3782	47.7947	131.829	43.8197	33.2352	
6	0.05	103.205	25.0905	40.8821	84.3472	15.2724	19.8616	72.5378	6.17877	-8.97723	70.7878	-5.1663	-29.5447	110.798	39.383	-32.9654	99.724	30.3062	-60.2833	97.9757	13.107	-80.3078	133.907	39.3513	-39.1819	129.029	28.9815	-68.0542	121.26	8.34494	-93.2975	155.762	30.4974	-34.2722	154.831	23.185	-59.9104	149.071	6.8372	-81.6917	171.634	18.544	-16.559	177.434	11.3211	-43.6207	171.802	-5.52104	-65.7865	160.55	40.1596	20.626	163.578	39.622	48.2607	131.636	48.3449	31.9446	
7	0.0583333	106.584	29.2471	38.0174	89.0995	20.0054	12.8042	77.8239	11.1245	-14.3877	74.4956	1.47077	-37.6608	114.063	50.0837	-38.8665	108.348	43.8861	-67.9402	102.147	36.1802	-92.1421	143.513	50.5303	-46.007	139.826	46.8393	-74.7911	138.854	36.1427	-107.84	164.851	42.9399	-39.4212	167.34	42.0478	-64.5959	162.959	37.0267	-89.0211	180.896	30.9711	-19.3339	188.473	31.2313	-42.4911	195.932	23.7843	-69.3232	164.549	50.6402	11.4369	168.266	48.3453	45.1167	133.283	55.4971	29.2929	
8	0.0666667	114.691	35.6247	24.9986	95.0957	24.4887	5.76071	85.2864	15.2381	-19.2474	79.0169	4.41278	-41.1722	122.348	56.7477	-47.2194	113.66	56.2109	-72.337	110.753	53.8596	-94.1773	152.332	59.8193	-50.7343	150.513	59.0555	-82.4448	148.306	57.088	-107.75	169.912	51.2721	-41.5419	173.749	51.3571	-66.6595	176.998	49.5947	-96.5391	190.332	39.03	-27.3553	196.154	37.8298	-50.4425	207.915	32.1982	-69.9368	174.62	57.76	6.46239	176.315	55.9478	35.5366	141.868	60.8288	22.3694	
9	0.075	116.172	39.1802	24.7715	100.232	25.6115	-0.292201	89.1661	16.5842	-24.4783	83.3885	6.4561	-47.5934	128.93	61.0479	-51.5725	117.031	60.1499	-72.646	113.607	59.225	-100.595	154.065	64.9394	-57.0812	155.334	64.0654	-85.8128	153.147	64.3868	-111.922	176.07	52.4494	-46.3701	178.291	50.6043	-71.4311	181.254	45.6832	-99.0578	196.956	39.6644	-32.4431	201.078	35.6164	-54.8836	206.084	28.7972	-76.859	173.414	59.2972	4.59376	179.614	58.9795	30.455	147.663	65.9109	18.6115	
10	0.0833333	121.539	38.2826	19.8381	102.353	25.0404	-5.06386	91.5531	13.9403	-29.5551	90.1872	4.61825	-52.1178	130.237	60.9479	-48.7871	119.725	59.4718	-78.246	120.411	57.9653	-100.256	159.384	62.7577	-57.5988	160.714	62.2177	-83.3693	158.193	59.1728	-113.994	180.562	50.1362	-51.4517	182.436	44.8758	-74.4431	182.989	32.3638	-99.8071	199.605	36.7426	-34.6512	201.187	29.3524	-57.2014	202.169	12.5777	-79.979	176.403	59.5318	5.7582	180.534	59.7032	34.2196	148.657	62.9829	18.1034	
11	0.0916667	123.136	32.6517	23.9464	112.703	21.8165	-4.34796	100.842	12.4478	-35.6603	97.889	3.4352	-57.7962	130.598	58.6745	-50.5083	124.856	56.0115	-77.9011	120.686	50.0303	-102.749	158.424	60.0727	-54.2152	160.098	56.5352	-85.4344	155.292	48.8306	-114.735	180.927	46.3294	-50.9584	182.954	33.9888	-74.0882	177.452	10.1729	-94.4747	196.058	35.6921	-39.0974	199.32	19.8099	-60.1518	193.984	-3.59065	-70.6107	181.163	58.5013	1.87801	182.114	55.7911	33.8186	146.984	61.225	15.5577	
12	0.1	124.267	29.8647	23.0255	116.743	20.323	-6.54448	109.317	12.9928	-33.8115	108.836	7.39817	-57.9452	130.654	60.6621	-50.8192	126.169	54.9573	-76.5153	119.224	46.474	-96.8478	157.558	60.224	-58.2665	159.525	50.326	-86.9113	154.446	36.0521	-112.122	178.214	42.9025	-52.0063	179.505	21.6369	-73.1918	168.377	-4.99328	-80.3988	197.298	34.3533	-40.2954	191.475	15.1676	-57.5674	178.947	-10.3616	-54.8769	181.495	60.1285	4.85108	184.265	52.331	34.1594	149.724	60.8273	22.0894	
13	0.108333	130.221	31.0132	20.0794	118.634	22.3192	-9.52164	116.101	19.5907	-38.2482	117.039	13.6542	-60.7146	135.378	62.089	-47.7549	127.672	56.4696	-75.7487	120.265	43.3277	-100.929	162.278	60.4216	-54.1812	157.398	50.4977	-82.8098	151.191	28.6214	-111.355	178.651	38.1972	-52.3983	169.523	17.1689	-66.5828	164.197	-11.6772	-63.5914	196.211	31.2233	-38.9701	183.901	5.65432	-50.6379	170.52	-10.3649	-36.8986	182.608	58.7067	7.59746	186.25	51.5304	33.2707	150.83	61.0209	23.5052	
14	0.116667	128.808	32.0729	19.352	116.227	23.9885	-10.0766	118.277	23.0374	-40.514	124.472	20.4822	-67.7493	132.588	64.4055	-51.1711	127.223	55.6515	-77.3806	118.917	44.7463	-97.6229	157.28	59.846	-55.9263	156.528	48.9013	-81.8485	147.218	26.8417	-108.823	176.97	34.1557	-49.582	166.351	5.6609	-59.3797	154.871	-18.9313	-43.4668	190.715	26.4701	-38.3462	180.662	-0.160285	-42.6037	165.151	-10.8699	-15.8734	186.786	57.7164	4.82012	185.445	50.8565	34.9187	152.727	60.6018	19.4094	
15	0.125	127.832	33.0765	19.1692	119.728	25.4612	-10.7517	119.205	23.7922	-41.1594	127.057	20.81	-64.2058	132.754	63.497	-50.1633	124.315	55.0828	-76.2473	117.271	46.2929	-97.506	159.311	56.5154	-58.4002	152.197	45.0344	-84.5657	145.624	27.9653	-108.021	170.884	30.039	-47.976	167.589	1.90353	-52.7632	154.331	-21.5921	-30.7988	188.508	20.5162	-37.2851	175.794	-4.13428	-33.4106	164.147	-9.93471	-5.86642	189.479	56.4696	5.27936	190.575	49.5202	32.6224	154.603	58.7061	22.7058	
